<svg height="410pt" viewBox="0 0 410 410" width="410pt" xmlns="http://www.w3.org/2000/svg"><path d="m410 205c0 113.21875-91.78125 205-205 205s-205-91.78125-205-205 91.78125-205 205-205 205 91.78125 205 205zm0 0" fill="#e48e66"/><path d="m0 205c0 113.199219 91.800781 205 205 205v-410c-113.199219 0-205 91.800781-205 205zm0 0" fill="#d18162"/><path d="m214.199219 105.398438c-3.894531-3.890626-10.207031-3.890626-14.097657 0-3.894531 3.894531-3.894531 10.207031 0 14.101562l75.5 75.5h-200.601562c-5.523438 0-10 4.476562-10 10s4.476562 10 10 10h200.5l-75.5 75.5c-1.871094 1.867188-2.925781 4.40625-2.925781 7.050781s1.054687 5.179688 2.925781 7.050781c1.875 1.886719 4.4375 2.933594 7.101562 2.898438 2.652344-.011719 5.195313-1.050781 7.097657-2.898438l99.601562-99.601562zm0 0" fill="#f8ec7d"/></svg>