<svg width="640" height="640" xmlns="http://www.w3.org/2000/svg" xmlns:svg="http://www.w3.org/2000/svg">
 <title>blue bus - 90</title>

 <metadata id="metadata8">image/svg+xml</metadata>
 <g>
  <title>Layer 1</title>
  <g transform="rotate(0, 304.266, 308.975)" id="g10">
   <path id="path342" d="m233.891434,528.068604c14.934967,2.844116 42.618729,3.587952 70.34996,3.587952c27.636261,0 55.318756,-0.743835 70.206268,-3.543152c11.608765,-2.101501 17.173737,-10.281128 16.746246,-22.094727l0,-348.132294c0.1875,-15.74881 0.236237,-30.625076 -1.191254,-37.535492c-3.236237,-15.311996 -8.98877,-26.032227 -18.502502,-28.3936c-17.549988,-4.507698 -42.428741,-6.603462 -67.307495,-6.603462c-24.876251,0 -49.799973,2.054375 -67.353745,6.559784c-9.511261,2.362503 -15.219971,13.125282 -18.454987,28.437233c-1.427521,6.910461 -1.427521,21.786667 -1.236237,37.535477l0,348.132355c-0.380035,11.813599 5.138733,19.948364 16.743744,22.049866" fill-rule="evenodd" fill="#F4D03F"/>
   <path id="path344" d="m388.620148,178.565994l-3.459991,50.928452c-0.436249,6.458008 -2.393738,10.17981 -4.253754,10.542191l-5.491272,1.097763c-1.141235,0.217636 -1.947449,-2.919342 -1.947449,-7.625763l0,-9.851852c0,-10.651443 0.509949,-19.408447 1.751251,-25.717865l3.992462,-20.250137c0.858765,-4.414978 2.065002,-7.550964 3.523743,-7.514496l4.611267,0.072845c0.881226,0 1.532501,4.561584 1.273743,8.318863" fill-rule="evenodd" fill="#2C3E50"/>
   <path id="path346" d="m375.16391,201.257172l11.700012,-3.792725l-2.1875,31.95816c-0.142517,2.258759 -0.571259,4.557831 -1.285004,6.785889c-1.33252,3.866547 -2.616272,3.46579 -8.037506,4.522354c-1.048767,0 -1.42749,-5.691971 -1.42749,-6.384232c0,-11.018616 -0.237488,-22.1082 1.237488,-33.089447" fill-rule="evenodd" fill="#2c3e50"/>
   <path id="path348" d="m387.10141,193.888367l-11.224976,3.647934c1.616241,-8.392654 2.52124,-17.073944 5.326233,-25.20874c1.096252,-2.592361 2.188751,-1.78801 5.995026,-1.75061c0.951202,0.728638 0.951202,6.312241 0.951202,7.259491l-1.047485,16.051926" fill-rule="evenodd" fill="#2c3e50"/>
   <path id="path350" d="m388.148895,170.100433c0,-1.058441 0.570007,-1.9328 2.377502,-3.2453c2.901245,-2.116867 4.518768,-1.060349 7.89624,-0.365265c3.567505,0.766037 2.996277,0.255966 6.517517,2.078491c2.09375,1.132294 2.377502,2.336456 2.377502,4.342102c0,1.020996 -1.095001,2.041138 -2.377502,1.824448l-14.413757,-2.809052c-1.283752,-0.218567 -2.377502,-0.838882 -2.377502,-1.825424" fill-rule="evenodd" fill="#2c3e50"/>
   <path id="path352" d="m388.148895,169.919266c0.046265,-1.021973 0.902527,-2.079468 2.377502,-3.101486c0.427521,-0.36528 0.903748,-0.584839 1.377502,-0.76506c-2.803741,-1.459152 -8.464996,-2.482162 -8.607483,-0.510025c-0.237518,1.713196 0.095001,2.479248 0.332489,3.247223c0.238739,0.980713 2.758759,1.457214 4.519989,1.129349" fill-rule="evenodd" fill="#2c3e50"/>
   <path id="path354" d="m385.770172,237.082794l0,-2.261612c0,-1.530182 0.342499,-2.81102 0.753723,-2.81102l2.727509,0c0.408752,0 0.751251,1.241623 0.751251,2.81102l0,2.261612c0,1.568466 -0.328735,2.810089 -0.751251,2.810089l-2.727509,0c-0.423737,0 -0.753723,-1.241623 -0.753723,-2.810089" fill-rule="evenodd" fill="#ffffff"/>
   <path id="path358" d="m368.69516,245.253036l2.232544,-0.047897c0.097443,-23.84639 0.189941,-45.784927 1.001221,-49.439606l-0.096222,0c2.852448,-17.923401 9.464966,-30.48941 8.038727,-42.230957c-1.045013,-8.239288 -7.373779,-10.14621 -14.268738,-11.536346c-20.740021,-4.221313 -40.956299,-6.128174 -61.410004,-6.128174c-20.451233,0 -40.619995,1.648041 -61.311234,6.076385c-6.849976,1.441925 -13.176239,3.297089 -14.222504,11.588135c-1.475006,11.741547 5.183746,24.256714 7.991241,42.230957l-0.046265,0l1.045013,6.693802c0.665009,0.207108 1.381256,0.36145 2.1875,0.36145l-1.09375,-6.491577c22.308731,-2.212708 43.951248,-3.859772 65.548721,-3.859772c21.640015,0 43.235016,1.750626 65.450012,3.913513c-1.236267,3.089966 -1.046265,18.745956 -1.046265,48.870087" fill-rule="evenodd" fill="#2c3e50"/>
   <path id="path360" d="m253.153915,193.521164c21.689987,-1.929901 43.618729,-3.026688 65.451218,-2.258759c12.891296,0.218613 26.115021,1.385376 38.956268,2.479248c4.186249,0.365326 8.421265,0.803452 12.560028,1.204208c1.997467,-11.673462 6.468719,-23.130249 7.991211,-34.842072c0.428772,-5.323776 0.522522,-11.746262 -6.13623,-14.812256c-4.518768,-1.967316 -11.368744,-2.918365 -16.411255,-3.757248c-36.293732,-6.237534 -76.248749,-5.799362 -112.112473,1.751541c-4.757507,1.022034 -9.038757,2.152313 -11.368744,5.728439c-3.61499,6.53273 -0.903778,16.235001 0.806244,22.947128c2.191223,7.405182 4.378723,15.247528 5.52124,22.840622c0.950012,0.143845 3.232483,-0.256912 4.326233,-0.329758c3.377502,-0.328903 6.992493,-0.657761 10.41626,-0.951096" fill-rule="evenodd" fill="#2c3e50"/>
   <path id="path364" d="m371.263916,118.587158c11.27124,1.533958 18.073761,-4.523285 7.420013,-13.935051c-3.472534,-3.026772 -13.130005,-9.046577 -30.966278,-8.97467c2.425018,6.932556 14.221283,21.670067 23.546265,22.909721" fill-rule="evenodd" fill="#ffffff"/>
   <path id="path368" d="m247.446365,497.771057c-3.046265,0 -5.419983,0.547424 -5.419983,1.113098l0,5.359253c0,0.624146 3.423737,3.168579 6.278748,3.207947c23.068771,1.285583 39.478745,2.182007 56.031235,2.182007c16.362488,0 32.917542,-0.866699 55.986267,-2.173401c2.852478,-0.040283 6.231262,-2.592407 6.231262,-3.216553l0,-5.359253c0,-0.565674 -2.378784,-1.102539 -5.375,-1.102539c-18.97876,0.933777 -37.767517,1.716125 -56.887512,1.716125c-19.125,0 -37.86499,-0.380615 -56.845016,-1.726685" fill-rule="evenodd" fill="#8d8f93"/>
   <path id="path370" d="m242.501419,504.159058c0.617493,1.422729 4.04126,2.736206 5.850006,2.917358c15.886215,0.803467 32.202499,2.115967 48.232468,2.115967c21.16626,0.474548 42.619995,-1.020081 63.690002,-2.079529c1.76001,-0.254028 5.186279,-1.531067 5.80249,-2.953796l0,-5.290283c-3.471191,-1.314392 -10.036255,-0.511963 -13.746216,-0.293396c-18.216248,0.731567 -36.910034,1.607788 -55.17627,1.241577c-16.599976,0 -33.200012,-0.656677 -49.707504,-1.677734c-1.666199,0.037354 -3.422455,0.145691 -4.944977,0.729553l0,5.290283" fill-rule="evenodd" fill="#2c3e50"/>
   <path id="path372" d="m233.891373,529.679382c-11.605011,-1.750671 -17.220032,-8.609436 -16.743744,-18.460327l0,-1.386292l17.791229,-0.949158l-1.142517,17.367371c16.027527,2.770691 43.047531,3.903931 70.25499,3.903931c26.72998,0 53.702515,-0.983704 70.39624,-3.867554l-1.09375,-17.365417l17.791321,0.948242l0,1.348877c0.476196,9.850891 -5.137573,16.709656 -16.746338,18.460327c-14.838745,2.334473 -42.52124,2.917358 -70.206238,2.917358c-23.068787,0 -47.849976,0.585815 -70.301193,-2.917358" fill-rule="evenodd" fill="#2c3e50"/>
   <path id="path374" d="m348.526428,97.536385l-0.144989,0l0,-0.253075l0.144989,0.253075zm-88.474976,0.038338l0.096252,-0.291412l0,0.291412l-0.096252,0zm-35.388748,16.635864c-0.57251,-2.483139 0.762482,-5.765839 5.138733,-9.631409c3.52002,-2.91835 12.936249,-8.901779 30.346268,-8.973633l0,-0.367203c12.272522,-3.063148 26.257507,-4.557831 42.096252,-4.377556l0,0.037354l0.283752,-0.037354c1.237488,0.037354 2.473724,0.037354 3.758728,0.073822l0,-0.145775c15.841278,-0.146622 29.872528,1.3116 42.095001,4.413979l0,0.402733c17.45752,0.071854 26.829987,6.019798 30.347473,8.973633c4.377533,3.86557 5.756287,7.14827 5.138794,9.596863l6.799988,4.449463c-0.1875,-1.605865 -0.428772,-2.992226 -0.665009,-4.12252c-3.236237,-12.768288 -8.941254,-21.672966 -18.453735,-23.642197c-17.598755,-3.793663 -42.430023,-5.545303 -67.356232,-5.545303c-0.663757,0 -1.283752,0 -1.948761,0l0,0.038383c-24.212494,0.070923 -48.137466,1.822517 -65.215012,5.50692c-9.509979,1.969231 -15.219971,10.873909 -18.454987,23.642197c-0.283752,1.165825 -0.474976,2.553078 -0.663727,4.157021l6.752472,-4.449417" fill-rule="evenodd" fill="#2c3e50"/>
   <path id="path376" d="m219.863937,178.527664l3.462494,50.929474c0.429993,6.458939 2.390015,10.18071 4.251251,10.545044l5.48999,1.093826c1.143768,0.218628 1.94751,-2.917419 1.94751,-7.626694l0,-9.848984c0,-10.651413 -0.511261,-19.407471 -1.752502,-25.720734l-3.991241,-20.246353c-0.856262,-4.414917 -2.065002,-7.552826 -3.523743,-7.515427l-4.610016,0.073822c-0.882507,0 -1.533752,4.558685 -1.273743,8.315979" fill-rule="evenodd" fill="#2c3e50"/>
   <path id="path378" d="m233.321426,201.257156l-11.702454,-3.792725l2.1875,31.95816c0.141205,2.258759 0.571228,4.557831 1.283722,6.785889c1.33374,3.866547 2.617493,3.46579 8.038788,4.522354c1.048676,0 1.426239,-5.691971 1.426239,-6.384247c0,-11.0186 0.238739,-22.108185 -1.233795,-33.089432" fill-rule="evenodd" fill="#2c3e50"/>
   <path id="path380" d="m221.380173,193.888351l11.227478,3.647934c-1.617493,-8.392639 -2.522491,-17.073944 -5.328735,-25.20874c-1.091248,-2.592346 -2.188751,-1.788025 -5.992523,-1.75061c-0.951233,0.728622 -0.951233,6.312225 -0.951233,7.259491l1.045013,16.051926" fill-rule="evenodd" fill="#2c3e50"/>
   <path id="path382" d="m220.383896,170.064056c0,-1.05751 -0.571259,-1.934738 -2.381226,-3.246292c-2.900055,-2.114914 -4.518738,-1.057449 -7.89502,-0.36528c-3.566254,0.767029 -2.997498,0.255981 -6.514984,2.079468c-2.093781,1.130341 -2.378784,2.336426 -2.378784,4.342072c0,1.022964 1.09375,2.043106 2.378784,1.82547l14.410004,-2.810074c1.287476,-0.218567 2.381226,-0.840805 2.381226,-1.825363" fill-rule="evenodd" fill="#2c3e50"/>
   <path id="path384" d="m220.383957,169.881866c-0.048767,-1.020111 -0.906281,-2.081421 -2.381256,-3.099579c-0.427521,-0.367203 -0.902466,-0.584839 -1.377502,-0.767914c2.806244,-1.459198 8.465027,-2.482162 8.607483,-0.511017c0.240051,1.716156 -0.093719,2.482101 -0.331207,3.249146c-0.23877,0.982697 -2.758759,1.459152 -4.517517,1.129364" fill-rule="evenodd" fill="#2c3e50"/>
   <path id="path386" d="m222.760178,237.048309l0,-2.263596c0,-1.53302 -0.341278,-2.809982 -0.752502,-2.809982l-2.730011,0c-0.404968,0 -0.748749,1.241516 -0.748749,2.809982l0,2.263596c0,1.56752 0.329987,2.808105 0.748749,2.808105l2.730011,0c0.423737,0 0.752502,-1.240585 0.752502,-2.808105" fill-rule="evenodd" fill="#ffffff"/>
   <path fill="#ffffff" fill-rule="evenodd" d="m237.220169,118.587143c-11.272522,1.533966 -18.074982,-4.5233 -7.418762,-13.935043c3.472504,-3.026779 13.127472,-9.04657 30.964981,-8.97467c-2.424988,6.932556 -14.223709,21.670067 -23.546219,22.909714" id="path390"/>
   <path fill="#2c3e50" fill-rule="evenodd" d="m344.958862,97.813431c-0.473724,-1.254021 -1.047485,-1.882019 -2.569977,-2.539688c-0.950012,-0.439056 -2.570007,-1.14373 -5.327484,-1.207024c-7.990021,-1.410332 -20.310028,-2.176277 -32.677521,-2.176277c-12.367523,0 -24.686279,1.0009 -32.630005,2.160927c-2.711243,0.062309 -4.330017,0.76796 -5.327484,1.208c-1.521271,0.657669 -2.092529,1.284729 -2.52002,2.539642c13.318726,-2.383331 26.63501,-3.119652 39.907471,-3.37085c13.888794,-0.267487 28.823792,1.659561 41.14502,3.385269" id="path404"/>
   <path fill="#ffffff" fill-rule="evenodd" d="m304.431427,92.030472c3.117493,0 5.660004,0.580017 5.660004,1.294235c0,0.714272 -2.542511,1.293343 -5.660004,1.293343c-3.116241,0 -5.661224,-0.579071 -5.661224,-1.293343c0,-0.714218 2.544983,-1.294235 5.661224,-1.294235" id="path406"/>
   <path fill="#211d1d" fill-rule="nonzero" d="m373.38269,433.647644l0.498718,-172.302307l-0.018738,0l-0.5,172.302307" id="path866"/>
   <path fill="#211d1d" fill-rule="nonzero" d="m373.881409,261.345306c0,-2.755402 0.132477,-4.889496 0.439972,-6.33429c0.307526,-1.44577 0.795044,-2.198425 1.48877,-2.196503l0,-0.014374c-1.42749,0.005814 -1.945007,3.033432 -1.94751,8.545166l0.018768,0" id="path868"/>
   <path fill="#211d1d" fill-rule="nonzero" d="m380.325165,252.814529l0,-0.014557l-4.514648,0l0,0.014557l4.514648,0z" id="path870"/>
   <path fill="#211d1d" fill-rule="nonzero" d="m380.325165,252.814529c0.996216,0 2.279999,0.651016 2.942505,3.166641l0.018738,-0.002853c-0.662537,-2.51857 -1.951263,-3.178162 -2.961243,-3.178162l0,0.014374" id="path872"/>
   <path fill="#211d1d" fill-rule="nonzero" d="m383.26767,255.981186l2.897491,10.726212l0.018738,-0.002869l-2.897491,-10.726196" id="path874"/>
   <path fill="#211d1d" fill-rule="nonzero" d="m386.165161,266.707397c1.209991,4.518494 1.533752,6.027496 1.533752,15.168945c0,0.309692 0,0.627014 -0.001251,0.953979l0.019989,0c0,-0.326965 0,-0.644287 0,-0.953979c0,-9.141449 -0.32373,-10.65332 -1.533752,-15.171814l-0.018738,0.002869" id="path876"/>
   <path fill="#211d1d" fill-rule="nonzero" d="m387.697662,282.830383l-0.383759,151.766357l0.018738,0l0.38501,-151.766357" id="path878"/>
   <path fill="#211d1d" fill-rule="nonzero" d="m370.835144,338.546783l20.358765,-0.402679l0,-0.014374l-20.358765,0.402679" id="path880"/>
   <path fill="#211d1d" fill-rule="nonzero" d="m347.850159,102.051003c2.85498,12.654198 6.565002,24.340126 11.273743,34.988686l0.018738,-0.004776c-4.709991,-10.647614 -8.418732,-22.332565 -11.272491,-34.986771l-0.019989,0.002861" id="path882"/>
   <path fill="#211d1d" fill-rule="nonzero" d="m372.251404,118.493164c2.334961,9.54129 4.084961,20.698944 4.084961,27.173248c0,1.57225 -0.103729,2.8685 -0.326233,3.797485l0.018768,0.002869c0.222473,-0.930923 0.326233,-2.228104 0.326233,-3.800354c0,-6.476227 -1.75,-17.633881 -4.085022,-27.176102l-0.018707,0.002853" id="path884"/>
   <path fill="#211d1d" fill-rule="nonzero" d="m391.145172,245.190735l0,-0.014191l-22.450256,0l0,0.014191l22.450256,0z" id="path888"/>
   <path fill="#211d1d" fill-rule="nonzero" d="m391.145172,248.873215l0,-0.015366l-90.422913,0l0,0.015366l90.422913,0z" id="path890"/>
   <path fill="#211d1d" fill-rule="nonzero" d="m370.937653,434.267883l0,-189.014862l-0.019989,0l0,189.014862l0.019989,0z" id="path894"/>
   <path fill="#211d1d" fill-rule="nonzero" d="m368.656403,434.267822l0,-189.014801l-0.018982,0l0,189.014801l0.018982,0z" id="path896"/>
   <path fill="#211d1d" fill-rule="nonzero" d="m379.30014,160.733704l12.177521,0.983673l0.001221,-0.014404l-12.17749,-0.983643" id="path898"/>
   <path fill="#211d1d" fill-rule="nonzero" d="m235.117691,433.647583l-0.496246,-172.302246l-0.018768,0l0.496246,172.302246" id="path900"/>
   <path fill="#211d1d" fill-rule="nonzero" d="m234.621445,261.345306c-0.002533,-5.511734 -0.522522,-8.539337 -1.946259,-8.545151l0,0.014374c0.692505,-0.001923 1.178741,0.750732 1.486237,2.196487c0.308777,1.444794 0.441254,3.578888 0.441254,6.33429l0.018768,0" id="path902"/>
   <path fill="#211d1d" fill-rule="nonzero" d="m232.675186,252.814514l0,-0.014557l-4.518555,0l0,0.014557l4.518555,0z" id="path904"/>
   <path fill="#211d1d" fill-rule="nonzero" d="m228.156448,252.800156c-1.008759,0 -2.296265,0.659607 -2.960022,3.178177l0.018768,0.002853c0.663757,-2.515625 1.946259,-3.166656 2.941254,-3.166656l0,-0.014374" id="path906"/>
   <path fill="#211d1d" fill-rule="nonzero" d="m225.196426,255.978317l-2.896271,10.726212l0.018768,0.002869l2.89624,-10.726212" id="path908"/>
   <path fill="#211d1d" fill-rule="nonzero" d="m222.300156,266.704529c-1.204987,4.50412 -1.533752,6.02179 -1.533752,15.08844c0,0.335602 0,0.680725 0.001282,1.037354l0.018738,0c-0.001282,-0.356628 -0.001282,-0.701752 -0.001282,-1.037354c0,-9.067596 0.328766,-10.581421 1.533783,-15.085571l-0.018768,-0.002869" id="path910"/>
   <path fill="#211d1d" fill-rule="nonzero" d="m220.767685,282.830322l0.382507,151.766357l0.018707,0l-0.382477,-151.766357" id="path912"/>
   <path fill="#211d1d" fill-rule="nonzero" d="m237.600174,338.493988l-20.311218,-0.39978l0,0.014374l20.311218,0.400757" id="path914"/>
   <path fill="#211d1d" fill-rule="nonzero" d="m260.613892,102.048141c-2.853729,12.654205 -6.563736,24.339203 -11.272476,34.986771l0.017487,0.004776c4.708771,-10.64856 8.419968,-22.334442 11.273758,-34.988686l-0.018768,-0.002861" id="path916"/>
   <path fill="#211d1d" fill-rule="nonzero" d="m236.212662,118.490288c-2.333771,9.542229 -4.08374,20.699867 -4.08374,27.176079c0,1.573242 0.102509,2.869431 0.326233,3.800369l0.018768,-0.002869c-0.222504,-0.928986 -0.326294,-2.225189 -0.326294,-3.797501c0,-6.474304 1.750061,-17.631943 4.083771,-27.173225l-0.018738,-0.002853" id="path918"/>
   <path fill="#211d1d" fill-rule="nonzero" d="m239.836441,245.151443l0,-0.014557l-22.449768,0l0,0.014557l22.449768,0z" id="path922"/>
   <path fill="#211d1d" fill-rule="nonzero" d="m237.563889,434.267883l0,-189.014847l-0.018494,0l0,189.014847l0.018494,0z" id="path926"/>
   <path fill="#211d1d" fill-rule="nonzero" d="m239.846451,434.267883l0,-189.014816l-0.019989,0l0,189.014816l0.019989,0z" id="path928"/>
   <path fill="#211d1d" fill-rule="nonzero" d="m229.227676,160.680969l-12.174957,0.985596l0.001221,0.014374l12.1763,-0.985535" id="path930"/>
   <path fill="#2c3e50" fill-rule="nonzero" d="m349.098938,98.685936c-13.09375,-2.585701 -27.204987,-4.405319 -43.881256,-4.405319c-1.738739,0 -3.506226,0.020134 -5.303711,0.060387l0.001221,0.015358c1.796265,-0.04129 3.563751,-0.060387 5.30249,-0.060387c16.675018,0 30.783783,1.81868 43.876282,4.404381l0.004974,-0.01442" id="path952"/>
   <path fill="#2c3e50" fill-rule="nonzero" d="m259.770142,98.735748c13.091217,-2.584717 27.195007,-4.403442 43.866211,-4.403442c1.742523,0 3.512543,0.020126 5.3125,0.061371l0,-0.015305c-1.799957,-0.04026 -3.569977,-0.060387 -5.3125,-0.060387c-16.672485,0 -30.778717,1.818672 -43.871216,4.403397l0.005005,0.014366" id="path954"/>
   <rect fill="#2c3e50" ry="6.51677" transform="matrix(0, -0.958726, 1.25, 0, 605.459, 499.922)" y="-305.835567" x="10.020151" height="13.03354" width="248.53607" id="rect4902"/>
   <path fill="#2c3e50" fill-rule="evenodd" d="m228.931198,303.266602l4.886169,-0.003845c3.309174,-0.002838 6.064392,-0.174683 6.062683,-0.37973l-0.011261,-1.360992c-0.001221,-0.201843 -2.683197,-0.371216 -6.068909,-0.368652l-4.8862,0.003845c-3.383667,0.002869 -6.060272,0.169128 -6.058533,0.377869l0.011261,1.360992c0.00119,0.211273 2.681122,0.373077 6.064789,0.370514" id="path386-4-4"/>
   <path fill="#2c3e50" fill-rule="evenodd" d="m229.291275,272.552063l4.886169,-0.003876c3.309174,-0.002869 6.064331,-0.174713 6.062622,-0.3797l-0.01123,-1.360992c-0.00119,-0.201904 -2.683167,-0.371277 -6.068939,-0.368713l-4.886139,0.003906c-3.383667,0.002869 -6.060272,0.169067 -6.058533,0.377808l0.011261,1.361053c0.00116,0.211212 2.681122,0.373077 6.064789,0.370514" id="path386-4-4-6"/>
   <path fill="#2c3e50" fill-rule="evenodd" d="m229.068069,333.290588l4.724915,-0.003845c3.200012,-0.002869 5.864227,-0.174744 5.86264,-0.37973l-0.011292,-1.360992c-0.00116,-0.201904 -2.594604,-0.371216 -5.868652,-0.368652l-4.724945,0.003845c-3.272003,0.002838 -5.860321,0.169067 -5.858643,0.377869l0.011261,1.360992c0.00116,0.211212 2.592651,0.373077 5.864716,0.370514" id="path386-4-4-4"/>
   <path fill="#2c3e50" fill-rule="evenodd" d="m229.236313,364.554443l4.724945,-0.003845c3.199982,-0.002869 5.864227,-0.174744 5.862579,-0.379761l-0.01123,-1.360962c-0.001099,-0.201904 -2.594666,-0.371216 -5.868683,-0.368652l-4.724945,0.003845c-3.272034,0.002838 -5.860321,0.169067 -5.858612,0.377838l0.011261,1.360992c0.001099,0.211243 2.592651,0.373108 5.864685,0.370544" id="path386-4-4-4-0"/>
   <path fill="#2c3e50" fill-rule="evenodd" d="m229.236282,395.147156l4.724945,-0.003845c3.200012,-0.002869 5.864258,-0.174744 5.862549,-0.379761l-0.01123,-1.360962c-0.001099,-0.201904 -2.594604,-0.371277 -5.868652,-0.368652l-4.724945,0.003784c-3.272034,0.002869 -5.860321,0.169128 -5.858612,0.377869l0.011261,1.361023c0.001099,0.211243 2.592651,0.373108 5.864685,0.370544" id="path386-4-4-4-2"/>
   <path fill="#2c3e50" fill-rule="evenodd" d="m229.236282,425.826355l4.724945,-0.003845c3.200012,-0.002869 5.864258,-0.174744 5.862549,-0.379761l-0.01123,-1.360962c-0.001099,-0.201904 -2.594604,-0.371277 -5.868652,-0.368652l-4.724945,0.003784c-3.272034,0.002869 -5.860321,0.169128 -5.858612,0.377869l0.011261,1.361023c0.001099,0.211243 2.592651,0.373108 5.864685,0.370544" id="path386-4-4-4-2-9"/>
   <rect fill="#2c3e50" transform="matrix(0, -0.958726, 1.25, 0, 751.898, 613.099)" ry="6.51677" y="-305.386131" x="127.170732" height="13.03354" width="249.43494" id="rect4902-7"/>
   <path fill="#2c3e50" fill-rule="evenodd" d="m375.931213,303.266632l4.886139,-0.003845c3.309204,-0.002838 6.064362,-0.174713 6.062653,-0.37973l-0.011261,-1.361023c-0.00119,-0.201843 -2.683167,-0.371216 -6.068909,-0.368652l-4.886139,0.003845c-3.383728,0.002869 -6.060303,0.169128 -6.058563,0.377869l0.01123,1.361023c0.001221,0.211243 2.681152,0.373077 6.06485,0.370514" id="path386-4-4-43"/>
   <path fill="#2c3e50" fill-rule="evenodd" d="m376.29126,272.552063l4.886139,-0.003906c3.309204,-0.002869 6.064392,-0.174683 6.062653,-0.3797l-0.011261,-1.360962c-0.00119,-0.201904 -2.683136,-0.371277 -6.068909,-0.368713l-4.886169,0.003876c-3.383667,0.002838 -6.060242,0.169098 -6.058533,0.377899l0.011261,1.360962c0.001221,0.211243 2.681122,0.373108 6.064819,0.370544" id="path386-4-4-6-7"/>
   <path fill="#2c3e50" fill-rule="evenodd" d="m376.068024,333.290588l4.724945,-0.003845c3.200012,-0.002899 5.864258,-0.174744 5.86261,-0.37973l-0.01123,-1.360992c-0.001129,-0.201904 -2.594635,-0.371277 -5.868683,-0.368713l-4.724945,0.003845c-3.272034,0.002899 -5.860321,0.169128 -5.858612,0.37793l0.0112,1.360931c0.00116,0.211273 2.592712,0.373138 5.864716,0.370575" id="path386-4-4-4-5"/>
   <path fill="#2c3e50" fill-rule="evenodd" d="m376.236237,364.554443l4.724945,-0.003815c3.200012,-0.002869 5.864258,-0.174774 5.86261,-0.379761l-0.011261,-1.360992c-0.001099,-0.201904 -2.594604,-0.371277 -5.868652,-0.368683l-4.724945,0.003845c-3.272064,0.002899 -5.860321,0.169128 -5.858643,0.377899l0.011261,1.360962c0.001129,0.211243 2.592651,0.373138 5.864685,0.370544" id="path386-4-4-4-0-6"/>
   <path fill="#2c3e50" fill-rule="evenodd" d="m376.236237,395.147095l4.724945,-0.003845c3.200012,-0.002869 5.864258,-0.174744 5.86261,-0.379761l-0.011261,-1.360962c-0.001099,-0.201904 -2.594604,-0.371216 -5.868652,-0.368652l-4.724945,0.003845c-3.272064,0.002869 -5.860321,0.169128 -5.858643,0.377869l0.011261,1.360962c0.001129,0.211243 2.592651,0.373108 5.864685,0.370544" id="path386-4-4-4-2-8"/>
   <path fill="#2c3e50" fill-rule="evenodd" d="m376.236237,425.826355l4.724945,-0.003845c3.200012,-0.002869 5.864258,-0.174744 5.86261,-0.379761l-0.011261,-1.360962c-0.001099,-0.201904 -2.594604,-0.371216 -5.868652,-0.368652l-4.724945,0.003845c-3.272064,0.002869 -5.860321,0.169128 -5.858643,0.377869l0.011261,1.360962c0.001129,0.211243 2.592651,0.373108 5.864685,0.370544" id="path386-4-4-4-2-9-1"/>
  </g>
 </g>
</svg>